<svg xmlns="http://www.w3.org/2000/svg" width="980" height="860" viewBox="0 0 980 860" font-family="Segoe UI, Arial, sans-serif">
<defs>
  <marker id="arr" markerWidth="8" markerHeight="6" refX="7" refY="3" orient="auto">
    <polygon points="0 0, 8 3, 0 6" fill="#455A64"/>
  </marker>
  <marker id="arr-dash" markerWidth="8" markerHeight="6" refX="7" refY="3" orient="auto">
    <polygon points="0 0, 8 3, 0 6" fill="#7C3AED"/>
  </marker>
  <marker id="arr-green" markerWidth="8" markerHeight="6" refX="7" refY="3" orient="auto">
    <polygon points="0 0, 8 3, 0 6" fill="#059669"/>
  </marker>
  <filter id="sh" x="-8%" y="-8%" width="116%" height="120%">
    <feDropShadow dx="0" dy="2" stdDeviation="3" flood-color="#00000018"/>
  </filter>
</defs>
<rect width="980" height="860" fill="#F8FAFC"/>
<rect x="0" y="64" width="980" height="76" fill="#DBEAFE" opacity="0.55"/>
<line x1="0" y1="64" x2="980" y2="64" stroke="#CBD5E1" stroke-width="0.8"/>
<text x="7" y="106" font-size="9" fill="#64748B" font-weight="700">Cliente</text>
<rect x="0" y="150" width="980" height="108" fill="#EDE9FE" opacity="0.55"/>
<line x1="0" y1="150" x2="980" y2="150" stroke="#CBD5E1" stroke-width="0.8"/>
<text x="7" y="208" font-size="9" fill="#64748B" font-weight="700">CDN & Identidad</text>
<rect x="0" y="268" width="980" height="88" fill="#DCFCE7" opacity="0.55"/>
<line x1="0" y1="268" x2="980" y2="268" stroke="#CBD5E1" stroke-width="0.8"/>
<text x="7" y="316" font-size="9" fill="#64748B" font-weight="700">Presentación</text>
<rect x="0" y="366" width="980" height="92" fill="#FEF3C7" opacity="0.55"/>
<line x1="0" y1="366" x2="980" y2="366" stroke="#CBD5E1" stroke-width="0.8"/>
<text x="7" y="416" font-size="9" fill="#64748B" font-weight="700">API</text>
<rect x="0" y="468" width="980" height="128" fill="#FEFCE8" opacity="0.55"/>
<line x1="0" y1="468" x2="980" y2="468" stroke="#CBD5E1" stroke-width="0.8"/>
<text x="7" y="536" font-size="9" fill="#64748B" font-weight="700">Cómputo</text>
<rect x="0" y="606" width="980" height="112" fill="#FFE4E6" opacity="0.55"/>
<line x1="0" y1="606" x2="980" y2="606" stroke="#CBD5E1" stroke-width="0.8"/>
<text x="7" y="666" font-size="9" fill="#64748B" font-weight="700">Datos Operativos</text>
<rect x="0" y="728" width="980" height="102" fill="#F3E8FF" opacity="0.55"/>
<line x1="0" y1="728" x2="980" y2="728" stroke="#CBD5E1" stroke-width="0.8"/>
<text x="7" y="783" font-size="9" fill="#64748B" font-weight="700">Catálogo & Data Lake</text>
<text x="490" y="30" font-size="17" font-weight="700" fill="#1E3A5F" text-anchor="middle">Arquitectura AWS — Gestión de Proyectos</text>
<text x="490" y="48" font-size="10.5" fill="#64748B" text-anchor="middle">BanRural · Region: us-east-1 · Cuenta: 186281981036 · Serverless por capas · Ambiente: dev</text>
<rect x="360" y="74" width="260" height="56" rx="10" fill="#BFDBFE" stroke="#3B82F6" stroke-width="1.5" filter="url(#sh)"/>
<text x="490" y="107" font-size="12" font-weight="600" fill="#1E293B" text-anchor="middle">Navegador — Usuario Interno BanRural</text>
<rect x="85" y="162" width="210" height="82" rx="10" fill="#FDE68A" stroke="#D97706" stroke-width="1.5" filter="url(#sh)"/>
<text x="190" y="199" font-size="12" font-weight="600" fill="#1E293B" text-anchor="middle">CloudFront</text>
<text x="190" y="215" font-size="9.5" fill="#475569" text-anchor="middle">CDN · HTTPS :443 · cache optimizado</text>
<rect x="665" y="162" width="220" height="82" rx="10" fill="#C4B5FD" stroke="#7C3AED" stroke-width="1.5" filter="url(#sh)"/>
<text x="775" y="199" font-size="12" font-weight="600" fill="#1E293B" text-anchor="middle">Cognito User Pool</text>
<text x="775" y="215" font-size="9.5" fill="#475569" text-anchor="middle">JWT · OAuth 2.0 · SRP · USER_PASSWORD_AUTH</text>
<rect x="290" y="278" width="400" height="68" rx="10" fill="#86EFAC" stroke="#15803D" stroke-width="1.5" filter="url(#sh)"/>
<text x="490" y="308" font-size="12" font-weight="600" fill="#1E293B" text-anchor="middle">S3 Privado + Astro SPA</text>
<text x="490" y="324" font-size="9.5" fill="#475569" text-anchor="middle">gestion-proyectos-dev-frontend-186281981036</text>
<rect x="220" y="378" width="540" height="70" rx="10" fill="#FCD34D" stroke="#B45309" stroke-width="1.5" filter="url(#sh)"/>
<text x="490" y="409" font-size="12" font-weight="600" fill="#1E293B" text-anchor="middle">API Gateway HTTP API</text>
<text x="490" y="425" font-size="9.5" fill="#475569" text-anchor="middle">JWT Authorizer (Cognito) · CORS habilitado</text>
<text x="490" y="460" font-size="8.5" fill="#78350F" text-anchor="middle">
GET /health · GET /api/me · GET /api/workspace · POST|PATCH /api/people · POST|PATCH|DELETE /api/projects · POST|PATCH /api/projects/{id}/tasks
</text>
<rect x="155" y="478" width="660" height="116" rx="10" fill="#FEFCE8" stroke="#CA8A04" stroke-width="1.5" filter="url(#sh)"/>
<text x="485" y="541" font-size="12" font-weight="600" fill="#1E293B" text-anchor="middle"></text>
<text x="485" y="498" font-size="12" font-weight="700" fill="#1E293B" text-anchor="middle">Lambda  gestion-proyectos-dev-api  ·  Python 3.12  ·  256 MB  ·  timeout 10 s</text>
<rect x="175" y="508" width="160" height="72" rx="7" fill="#FEF9C3" stroke="#EAB308" stroke-width="1.5" filter="url(#sh)"/>
<text x="255" y="540" font-size="12" font-weight="600" fill="#1E293B" text-anchor="middle">handler.py</text>
<text x="255" y="556" font-size="9.5" fill="#475569" text-anchor="middle">router HTTP</text>
<line x1="335" y1="544" x2="350" y2="544" stroke="#455A64" stroke-width="1.5" marker-end="url(#arr)"/>
<rect x="355" y="508" width="160" height="72" rx="7" fill="#FEF9C3" stroke="#EAB308" stroke-width="1.5" filter="url(#sh)"/>
<text x="435" y="540" font-size="12" font-weight="600" fill="#1E293B" text-anchor="middle">services/</text>
<text x="435" y="556" font-size="9.5" fill="#475569" text-anchor="middle">workspace · users</text>
<line x1="515" y1="544" x2="530" y2="544" stroke="#455A64" stroke-width="1.5" marker-end="url(#arr)"/>
<rect x="535" y="508" width="160" height="72" rx="7" fill="#FEF9C3" stroke="#EAB308" stroke-width="1.5" filter="url(#sh)"/>
<text x="615" y="540" font-size="12" font-weight="600" fill="#1E293B" text-anchor="middle">repositories/</text>
<text x="615" y="556" font-size="9.5" fill="#475569" text-anchor="middle">dynamodb.py</text>
<line x1="695" y1="544" x2="710" y2="544" stroke="#455A64" stroke-width="1.5" marker-end="url(#arr)"/>
<rect x="700" y="508" width="160" height="72" rx="7" fill="#FEF9C3" stroke="#EAB308" stroke-width="1.5" filter="url(#sh)"/>
<text x="780" y="540" font-size="12" font-weight="600" fill="#1E293B" text-anchor="middle">auth.py</text>
<text x="780" y="556" font-size="9.5" fill="#475569" text-anchor="middle">JWT claims</text>
<rect x="50" y="618" width="230" height="96" rx="10" fill="#FCA5A5" stroke="#DC2626" stroke-width="1.5" filter="url(#sh)"/>
<text x="165" y="662" font-size="12" font-weight="600" fill="#1E293B" text-anchor="middle">DynamoDB</text>
<text x="165" y="678" font-size="9.5" fill="#475569" text-anchor="middle">gestion-proyectos-dev-main · PAY_PER_REQUEST · PITR</text>
<text x="165" y="692" font-size="8" fill="#991B1B" text-anchor="middle">PK: USER# · PERSON# · PROJECT# · AUDIT# · SETTING#</text>
<text x="165" y="703" font-size="8" fill="#991B1B" text-anchor="middle">SK: PROFILE · MODULE# · META · TASK# · PERSON#</text>
<rect x="360" y="618" width="215" height="96" rx="10" fill="#F0ABFC" stroke="#A21CAF" stroke-width="1.5" filter="url(#sh)"/>
<text x="467" y="662" font-size="12" font-weight="600" fill="#1E293B" text-anchor="middle">AWS Glue Catalog</text>
<text x="467" y="678" font-size="9.5" fill="#475569" text-anchor="middle">multi-cuenta · app directo · hub AssumeRole+LF</text>
<rect x="650" y="618" width="215" height="96" rx="10" fill="#A78BFA" stroke="#6D28D9" stroke-width="1.5" filter="url(#sh)"/>
<text x="757" y="662" font-size="12" font-weight="600" fill="#1E293B" text-anchor="middle">Amazon Athena</text>
<text x="757" y="678" font-size="9.5" fill="#475569" text-anchor="middle">preview controlado · resultados limitados</text>
<rect x="650" y="740" width="215" height="78" rx="10" fill="#6EE7B7" stroke="#059669" stroke-width="1.5" filter="url(#sh)"/>
<text x="757" y="775" font-size="12" font-weight="600" fill="#1E293B" text-anchor="middle">S3 Data Lake</text>
<text x="757" y="791" font-size="9.5" fill="#475569" text-anchor="middle">datos fuente BanRural</text>
<rect x="880" y="618" width="85" height="58" rx="8" fill="#BAE6FD" stroke="#0284C7" stroke-width="1.5" filter="url(#sh)"/>
<text x="922" y="643" font-size="12" font-weight="600" fill="#1E293B" text-anchor="middle">CloudWatch</text>
<text x="922" y="659" font-size="9.5" fill="#475569" text-anchor="middle">logs 1 mes</text>
<line x1="420" y1="130" x2="230" y2="162" stroke="#455A64" stroke-width="1.5" marker-end="url(#arr)"/>
<rect x="291" y="135" width="68" height="14" rx="3" fill="white" opacity="0.88"/>
<text x="325" y="147" font-size="9.5" fill="#455A64" text-anchor="middle" font-weight="500">HTTPS :443</text>
<line x1="560" y1="130" x2="730" y2="162" stroke="#455A64" stroke-width="1.5" marker-end="url(#arr)"/>
<rect x="626" y="135" width="38" height="14" rx="3" fill="white" opacity="0.88"/>
<text x="645" y="147" font-size="9.5" fill="#455A64" text-anchor="middle" font-weight="500">login</text>
<line x1="225" y1="244" x2="375" y2="278" stroke="#455A64" stroke-width="1.5" marker-end="url(#arr)"/>
<rect x="260" y="250" width="80" height="14" rx="3" fill="white" opacity="0.88"/>
<text x="300" y="262" font-size="9.5" fill="#455A64" text-anchor="middle" font-weight="500">serve static</text>
<line x1="730" y1="244" x2="610" y2="278" stroke="#7C3AED" stroke-width="1.5" marker-end="url(#arr)"/>
<rect x="633" y="250" width="74" height="14" rx="3" fill="white" opacity="0.88"/>
<text x="670" y="262" font-size="9.5" fill="#7C3AED" text-anchor="middle" font-weight="500">idToken JWT</text>
<line x1="490" y1="346" x2="490" y2="378" stroke="#455A64" stroke-width="1.5" marker-end="url(#arr)"/>
<rect x="429" y="351" width="122" height="14" rx="3" fill="white" opacity="0.88"/>
<text x="490" y="363" font-size="9.5" fill="#455A64" text-anchor="middle" font-weight="500">Bearer JWT · /api/*</text>
<line x1="490" y1="448" x2="490" y2="478" stroke="#455A64" stroke-width="1.5" marker-end="url(#arr)"/>
<rect x="399" y="452" width="182" height="14" rx="3" fill="white" opacity="0.88"/>
<text x="490" y="464" font-size="9.5" fill="#455A64" text-anchor="middle" font-weight="500">event{ path, method, claims }</text>
<line x1="270" y1="594" x2="200" y2="618" stroke="#455A64" stroke-width="1.5" marker-end="url(#arr)"/>
<rect x="147" y="595" width="176" height="14" rx="3" fill="white" opacity="0.88"/>
<text x="235" y="607" font-size="9.5" fill="#455A64" text-anchor="middle" font-weight="500">Query / PutItem / UpdateItem</text>
<line x1="467" y1="594" x2="467" y2="618" stroke="#A21CAF" stroke-width="1.5" stroke-dasharray="6,4" marker-end="url(#arr-dash)"/>
<rect x="397" y="595" width="140" height="14" rx="3" fill="white" opacity="0.88"/>
<text x="467" y="607" font-size="9.5" fill="#A21CAF" text-anchor="middle" font-weight="500">GetTable / GetDatabase</text>
<line x1="690" y1="594" x2="720" y2="618" stroke="#6D28D9" stroke-width="1.5" stroke-dasharray="6,4" marker-end="url(#arr-dash)"/>
<rect x="644" y="595" width="122" height="14" rx="3" fill="white" opacity="0.88"/>
<text x="705" y="607" font-size="9.5" fill="#6D28D9" text-anchor="middle" font-weight="500">StartQueryExecution</text>
<line x1="757" y1="714" x2="757" y2="740" stroke="#059669" stroke-width="1.5" stroke-dasharray="6,4" marker-end="url(#arr-green)"/>
<rect x="708" y="716" width="98" height="14" rx="3" fill="white" opacity="0.88"/>
<text x="757" y="728" font-size="9.5" fill="#059669" text-anchor="middle" font-weight="500">s3://datalake/*</text>
<line x1="815" y1="536" x2="880" y2="618" stroke="#0284C7" stroke-width="1.5" stroke-dasharray="6,4" marker-end="url(#arr)"/>
<rect x="831" y="566" width="32" height="14" rx="3" fill="white" opacity="0.88"/>
<text x="847" y="578" font-size="9.5" fill="#0284C7" text-anchor="middle" font-weight="500">logs</text>
<rect x="20" y="836" width="940" height="17" rx="4" fill="#F1F5F9" stroke="#CBD5E1" stroke-width="1"/>
<line x1="36" y1="844" x2="68" y2="844" stroke="#455A64" stroke-width="1.5" marker-end="url(#arr)"/>
<text x="74" y="848" font-size="9" fill="#334155">Flujo principal</text>
<line x1="175" y1="844" x2="207" y2="844" stroke="#7C3AED" stroke-width="1.5" stroke-dasharray="6,4" marker-end="url(#arr-dash)"/>
<text x="213" y="848" font-size="9" fill="#334155">Integración catálogo (planeada/controlada)</text>
<text x="510" y="848" font-size="9" fill="#94A3B8">Frontend URL: https://d269paz1z7q1g0.cloudfront.net  ·  API URL: https://63ibnl13da.execute-api.us-east-1.amazonaws.com</text>
</svg>